# xmcd CD database file
#
# Track frame offsets:
#	150
#	14122
#	33760
#	49250
#	64260
#	76882
#	89539
#	102275
#	117635
#	130446
#
# Disc length: 1924 seconds
#
# Revision: 2
# Processed by: cddbd v1.5.2PL0 Copyright (c) Steve Scherf et al.
# Submitted via: CDex 1.50
#
DISCID=8b07820a
DTITLE=Bowman, Hull and the Instant Band - Dirty Shuffle
DYEAR=2014
DGENRE=Blues
TTITLE0=Dirty Shuffle
TTITLE1=Love is Mighty
TTITLE2=Masterpiece #2
TTITLE3=George, Bill and Jimi
TTITLE4=Bobby Thumbnail
TTITLE5=Dont Call Me
TTITLE6=Resonator Blues
TTITLE7=Here You Find Me
TTITLE8=I Canr Find a Friend
TTITLE9=Grandad Blues
EXTD=YEAR: 2014
EXTT0=
EXTT1=
EXTT2=
EXTT3=
EXTT4=
EXTT5=
EXTT6=
EXTT7=
EXTT8=
EXTT9=
PLAYORDER=
